<?xml version="1.0" encoding="UTF-8" standalone="no"?>
<!DOCTYPE svg PUBLIC "-//W3C//DTD SVG 1.1//EN" "http://www.w3.org/Graphics/SVG/1.1/DTD/svg11.dtd">
<svg width="100%" height="100%" viewBox="0 0 710 650" version="1.1" xmlns="http://www.w3.org/2000/svg" xmlns:xlink="http://www.w3.org/1999/xlink" xml:space="preserve" style="fill-rule:evenodd;clip-rule:evenodd;stroke-linejoin:round;stroke-miterlimit:1.41421;">
    <clipPath id="_clip1">
        <path d="M549.454,130.546C442.06,23.152 267.94,23.152 160.546,130.546C53.151,237.94 53.151,412.06 160.546,519.454C267.94,626.849 442.06,626.849 549.454,519.454L549.454,130.546Z"/>
    </clipPath>
    <g clip-path="url(#_clip1)">
        <path d="M356.138,-54.998L357.275,-54.993L358.413,-54.985L359.551,-54.973L360.688,-54.958L361.826,-54.939L362.963,-54.917L364.101,-54.892L365.238,-54.863L366.376,-54.831L367.513,-54.795L368.65,-54.756L369.787,-54.714L370.924,-54.668L372.061,-54.619L373.198,-54.566L374.334,-54.51L375.471,-54.451L376.608,-54.388L377.744,-54.322L378.88,-54.252L380.016,-54.18L381.151,-54.103L382.287,-54.024L383.423,-53.94L384.558,-53.854L385.693,-53.764L386.828,-53.671L387.963,-53.574L389.097,-53.474L390.231,-53.371L391.365,-53.264L392.499,-53.154L393.632,-53.04L394.765,-52.923L395.898,-52.802L397.031,-52.679L398.163,-52.551L399.295,-52.421L400.427,-52.287L401.559,-52.149L402.69,-52.009L403.821,-51.864L404.951,-51.717L406.082,-51.566L407.212,-51.412L408.341,-51.254L409.47,-51.093L410.599,-50.928L411.727,-50.76L412.855,-50.589L413.983,-50.414L415.111,-50.236L416.237,-50.054L417.363,-49.869L418.49,-49.681L419.615,-49.489L420.741,-49.294L421.865,-49.095L422.99,-48.894L424.113,-48.688L425.237,-48.479L426.359,-48.267L427.482,-48.052L428.604,-47.833L429.725,-47.61L430.846,-47.385L431.966,-47.155L433.086,-46.923L434.206,-46.687L435.325,-46.447L436.443,-46.205L437.56,-45.959L438.677,-45.709L439.794,-45.456L440.911,-45.199L442.026,-44.94L443.14,-44.677L444.255,-44.41L445.369,-44.14L446.481,-43.866L447.593,-43.59L448.705,-43.309L449.817,-43.026L450.927,-42.739L452.037,-42.448L453.146,-42.154L454.254,-41.857L455.362,-41.556L456.469,-41.252L457.575,-40.945L458.681,-40.634L459.786,-40.319L460.89,-40.002L461.994,-39.68L463.096,-39.356L464.198,-39.028L465.3,-38.696L466.4,-38.362L467.5,-38.023L468.599,-37.682L469.697,-37.337L470.794,-36.988L471.891,-36.636L472.986,-36.281L474.081,-35.922L475.175,-35.56L476.268,-35.195L477.361,-34.826L478.452,-34.454L479.542,-34.078L480.632,-33.699L481.721,-33.316L482.809,-32.93L483.896,-32.541L484.983,-32.148L486.067,-31.752L487.151,-31.352L488.234,-30.949L489.317,-30.543L490.4,-30.132L491.479,-29.719L492.558,-29.303L493.637,-28.882L494.714,-28.459L495.791,-28.032L496.867,-27.601L497.941,-27.168L499.015,-26.73L500.087,-26.29L501.158,-25.846L502.229,-25.398L503.298,-24.947L504.366,-24.493L505.433,-24.035L506.499,-23.574L507.565,-23.11L508.628,-22.642L509.691,-22.17L510.752,-21.696L511.813,-21.217L512.872,-20.736L513.93,-20.251L514.987,-19.762L516.042,-19.271L517.097,-18.776L518.15,-18.277L519.204,-17.774L520.255,-17.269L521.303,-16.761L522.352,-16.248L523.4,-15.732L524.446,-15.213L525.49,-14.691L526.534,-14.165L527.577,-13.635L528.617,-13.103L529.658,-12.566L530.696,-12.027L531.732,-11.484L532.768,-10.938L533.803,-10.388L534.836,-9.835L535.868,-9.278L536.898,-8.718L537.927,-8.155L538.954,-7.588L539.981,-7.018L541.006,-6.444L542.029,-5.867L543.051,-5.287L544.071,-4.703L545.091,-4.116L546.108,-3.526L547.125,-2.932L548.14,-2.334L549.153,-1.733L550.165,-1.13L551.175,-0.522L552.184,0.089L553.191,0.703L554.197,1.321L555.201,1.942L556.204,2.566L557.205,3.194L558.204,3.825L559.202,4.46L560.199,5.098L561.195,5.74L562.187,6.384L563.178,7.032L564.169,7.684L565.157,8.338L566.144,8.997L567.129,9.658L568.112,10.323L569.094,10.991L570.074,11.663L571.053,12.338L572.03,13.016L573.003,13.697L573.978,14.383L574.95,15.072L575.918,15.763L576.886,16.458L577.854,17.157L578.818,17.859L579.78,18.563L580.741,19.272L581.7,19.984L582.659,20.7L583.614,21.418L584.567,22.14L585.519,22.865L586.469,23.594L587.417,24.325L588.363,25.06L589.306,25.798L590.249,26.54L591.192,27.287L592.13,28.035L593.066,28.787L594,29.541L594.934,30.3L595.864,31.062L596.793,31.826L597.72,32.595L598.644,33.365L599.569,34.142L600.491,34.921L601.408,35.701L602.324,36.485L603.24,37.274L604.154,38.066L605.065,38.861L605.972,39.657L606.878,40.458L607.785,41.265L608.687,42.071L609.586,42.881L610.486,43.697L611.382,44.514L612.275,45.334L613.168,46.159L614.058,46.986L614.946,47.817L615.831,48.651L616.714,49.487L617.595,50.328L618.475,51.172L619.35,52.017L620.224,52.866L621.097,53.72L621.968,54.577L622.836,55.438L623.584,56.183L475.324,204.908L474.812,204.397L474.418,204.007L474.022,203.617L473.626,203.23L473.228,202.843L472.828,202.457L472.43,202.074L472.03,201.693L471.629,201.313L471.227,200.935L470.825,200.558L470.422,200.184L470.019,199.811L469.614,199.44L469.208,199.069L468.803,198.703L468.395,198.335L467.987,197.97L467.581,197.609L467.171,197.247L466.76,196.886L466.35,196.528L465.939,196.172L465.528,195.817L465.114,195.464L464.699,195.11L464.285,194.761L463.872,194.414L463.456,194.067L463.039,193.721L462.621,193.377L462.204,193.036L461.785,192.696L461.365,192.356L460.945,192.019L460.524,191.683L460.104,191.351L459.683,191.019L459.258,190.687L458.834,190.358L458.41,190.03L457.985,189.704L457.56,189.38L457.132,189.057L456.705,188.735L456.278,188.416L455.85,188.098L455.421,187.782L454.99,187.466L454.559,187.153L454.129,186.842L453.697,186.532L453.263,186.222L452.83,185.916L452.398,185.611L451.961,185.306L451.526,185.004L451.09,184.703L450.653,184.404L450.216,184.106L449.778,183.81L449.339,183.515L448.9,183.222L448.46,182.93L448.02,182.641L447.578,182.352L447.135,182.065L446.693,181.78L446.25,181.496L445.806,181.214L445.361,180.933L444.916,180.654L444.47,180.376L444.024,180.1L443.577,179.826L443.128,179.552L442.68,179.281L442.231,179.011L441.781,178.742L441.331,178.475L440.88,178.21L440.428,177.946L439.976,177.683L439.524,177.423L439.07,177.163L438.616,176.905L438.161,176.649L437.706,176.394L437.25,176.141L436.794,175.889L436.336,175.639L435.879,175.39L435.42,175.143L434.961,174.897L434.503,174.653L434.043,174.411L433.581,174.169L433.12,173.929L432.659,173.692L432.196,173.455L431.733,173.22L431.27,172.986L430.805,172.754L430.34,172.523L429.876,172.294L429.41,172.067L428.942,171.84L428.476,171.616L428.01,171.393L427.541,171.171L427.072,170.951L426.603,170.733L426.133,170.515L425.663,170.3L425.192,170.086L424.721,169.873L424.249,169.663L423.777,169.453L423.303,169.245L422.831,169.039L422.357,168.833L421.882,168.63L421.407,168.428L420.931,168.227L420.456,168.029L419.979,167.831L419.502,167.635L419.024,167.44L418.546,167.247L418.068,167.056L417.589,166.866L417.109,166.677L416.629,166.49L416.148,166.305L415.667,166.121L415.187,165.939L414.705,165.758L414.222,165.578L413.739,165.4L413.255,165.223L412.772,165.048L412.288,164.875L411.803,164.703L411.318,164.533L410.832,164.364L410.346,164.196L409.859,164.03L409.373,163.866L408.885,163.703L408.397,163.541L407.909,163.381L407.42,163.223L406.931,163.066L406.442,162.91L405.952,162.756L405.462,162.604L404.971,162.453L404.48,162.304L403.989,162.156L403.496,162.009L403.003,161.864L402.511,161.721L402.018,161.579L401.524,161.439L401.031,161.3L400.536,161.162L400.041,161.026L399.547,160.892L399.051,160.759L398.555,160.628L398.06,160.498L397.563,160.37L397.066,160.243L396.569,160.118L396.071,159.994L395.573,159.871L395.075,159.75L394.577,159.631L394.078,159.514L393.578,159.397L393.079,159.282L392.58,159.169L392.079,159.057L391.579,158.947L391.078,158.838L390.577,158.731L390.076,158.626L389.574,158.521L389.072,158.419L388.57,158.318L388.067,158.218L387.565,158.12L387.062,158.023L386.558,157.928L386.055,157.835L385.551,157.743L385.047,157.652L384.542,157.563L384.038,157.475L383.533,157.389L383.028,157.305L382.523,157.222L382.017,157.14L381.512,157.061L381.006,156.982L380.499,156.905L379.992,156.83L379.486,156.756L378.979,156.684L378.472,156.613L377.965,156.543L377.457,156.476L376.949,156.409L376.442,156.345L375.934,156.281L375.426,156.22L374.917,156.16L374.409,156.101L373.9,156.044L373.391,155.988L372.882,155.934L372.373,155.881L371.863,155.83L371.354,155.781L370.844,155.733L370.334,155.686L369.824,155.641L369.315,155.598L368.805,155.556L368.294,155.516L367.784,155.477L367.273,155.439L366.763,155.404L366.252,155.369L365.741,155.336L365.23,155.305L364.719,155.275L364.208,155.247L363.697,155.221L363.186,155.195L362.675,155.172L362.163,155.15L361.652,155.129L361.14,155.11L360.629,155.092L360.117,155.076L359.606,155.062L359.094,155.049L358.582,155.037L358.071,155.028L357.559,155.019L357.047,155.012L356.535,155.007L356.024,155.003L355.512,155.001L355,155L354.488,155.001L353.976,155.003L353.465,155.007L352.953,155.012L352.441,155.019L351.929,155.028L351.418,155.037L350.906,155.049L350.394,155.062L349.883,155.076L349.371,155.092L348.86,155.11L348.348,155.129L347.837,155.15L347.325,155.172L346.814,155.195L346.303,155.221L345.792,155.247L345.281,155.275L344.77,155.305L344.259,155.336L343.748,155.369L343.237,155.404L342.727,155.439L342.216,155.477L341.706,155.516L341.195,155.556L340.685,155.598L340.176,155.641L339.666,155.686L339.156,155.733L338.646,155.781L338.137,155.83L337.627,155.881L337.118,155.934L336.609,155.988L336.1,156.044L335.591,156.101L335.083,156.16L334.574,156.22L334.066,156.281L333.558,156.345L333.051,156.409L332.543,156.476L332.035,156.543L331.528,156.613L331.021,156.684L330.514,156.756L330.008,156.83L329.501,156.905L328.994,156.982L328.488,157.061L327.983,157.14L327.477,157.222L326.972,157.305L326.467,157.389L325.962,157.475L325.458,157.563L324.953,157.652L324.449,157.743L323.945,157.835L323.442,157.928L322.938,158.023L322.435,158.12L321.933,158.218L321.43,158.318L320.928,158.419L320.426,158.521L319.924,158.626L319.423,158.731L318.922,158.838L318.421,158.947L317.921,159.057L317.42,159.169L316.921,159.282L316.422,159.397L315.922,159.514L315.423,159.631L314.925,159.75L314.427,159.871L313.929,159.994L313.431,160.118L312.934,160.243L312.437,160.37L311.94,160.498L311.445,160.628L310.949,160.759L310.453,160.892L309.959,161.026L309.464,161.162L308.969,161.3L308.476,161.439L307.982,161.579L307.489,161.721L306.997,161.864L306.504,162.009L306.011,162.156L305.52,162.304L305.029,162.453L304.538,162.604L304.048,162.756L303.558,162.91L303.069,163.066L302.58,163.223L302.091,163.381L301.603,163.541L301.115,163.703L300.627,163.866L300.141,164.03L299.654,164.196L299.168,164.364L298.682,164.533L298.197,164.703L297.712,164.875L297.228,165.048L296.745,165.223L296.261,165.4L295.778,165.578L295.295,165.758L294.813,165.939L294.333,166.121L293.852,166.305L293.37,166.491L292.891,166.677L292.412,166.866L291.932,167.056L291.453,167.247L290.976,167.44L290.499,167.635L290.021,167.831L289.544,168.029L289.069,168.227L288.593,168.428L288.118,168.63L287.643,168.833L287.169,169.039L286.696,169.245L286.224,169.453L285.751,169.662L285.279,169.874L284.807,170.086L284.337,170.3L283.867,170.515L283.397,170.733L282.928,170.951L282.459,171.171L281.991,171.393L281.523,171.616L281.057,171.84L280.59,172.067L280.125,172.294L279.66,172.523L279.194,172.754L278.73,172.986L278.267,173.22L277.804,173.455L277.342,173.691L276.88,173.929L276.418,174.169L275.958,174.41L275.498,174.653L275.038,174.897L274.58,175.143L274.121,175.39L273.664,175.639L273.206,175.889L272.75,176.141L272.294,176.394L271.839,176.649L271.384,176.905L270.93,177.163L270.477,177.422L270.024,177.683L269.572,177.946L269.12,178.21L268.669,178.475L268.219,178.742L267.769,179.011L267.319,179.281L266.872,179.552L266.424,179.825L265.977,180.1L265.53,180.376L265.084,180.654L264.639,180.933L264.194,181.214L263.75,181.496L263.307,181.78L262.864,182.065L262.422,182.352L261.981,182.64L261.54,182.931L261.1,183.222L260.661,183.515L260.222,183.81L259.784,184.106L259.347,184.404L258.91,184.703L258.474,185.004L258.038,185.306L257.604,185.61L257.17,185.916L256.736,186.223L256.304,186.531L255.872,186.842L255.44,187.153L255.01,187.467L254.58,187.781L254.151,188.098L253.722,188.416L253.294,188.736L252.867,189.057L252.441,189.38L252.014,189.704L251.589,190.03L251.166,190.358L250.742,190.687L250.319,191.018L249.897,191.35L249.475,191.684L249.054,192.02L248.634,192.357L248.215,192.695L247.796,193.036L247.378,193.378L246.961,193.721L246.545,194.066L246.129,194.413L245.714,194.762L245.3,195.112L244.886,195.463L244.474,195.816L244.061,196.172L243.65,196.528L243.239,196.886L242.83,197.246L242.42,197.607L242.011,197.971L241.605,198.335L241.198,198.702L240.791,199.07L240.386,199.44L239.982,199.811L239.578,200.184L239.174,200.559L238.772,200.935L238.371,201.313L237.97,201.693L237.57,202.075L237.171,202.458L236.772,202.842L236.375,203.229L235.978,203.617L235.582,204.007L235.186,204.399L234.792,204.792L234.399,205.186L234.007,205.582L233.617,205.978L233.229,206.374L232.842,206.773L232.458,207.171L232.074,207.57L231.693,207.97L231.314,208.371L230.935,208.773L230.559,209.174L230.185,209.577L229.811,209.982L229.44,210.386L229.07,210.792L228.702,211.197L228.336,211.604L227.97,212.012L227.607,212.421L227.246,212.829L226.886,213.239L226.528,213.65L226.171,214.061L225.816,214.474L225.463,214.886L225.112,215.3L224.762,215.714L224.413,216.129L224.066,216.545L223.721,216.962L223.377,217.379L223.036,217.796L222.696,218.214L222.356,218.635L222.019,219.055L221.684,219.475L221.35,219.897L221.018,220.319L220.687,220.742L220.358,221.165L220.03,221.589L219.704,222.015L219.38,222.441L219.057,222.867L218.736,223.294L218.416,223.722L218.098,224.15L217.782,224.579L217.466,225.01L217.153,225.441L216.842,225.871L216.531,226.304L216.223,226.736L215.916,227.169L215.61,227.604L215.306,228.039L215.004,228.474L214.703,228.91L214.404,229.347L214.106,229.784L213.81,230.222L213.515,230.661L213.222,231.1L212.931,231.54L212.64,231.981L212.352,232.422L212.065,232.864L211.78,233.307L211.496,233.75L211.214,234.194L210.933,234.639L210.654,235.084L210.376,235.53L210.1,235.976L209.825,236.424L209.552,236.872L209.28,237.32L209.011,237.769L208.742,238.218L208.475,238.669L208.209,239.12L207.946,239.571L207.683,240.024L207.422,240.477L207.163,240.93L206.905,241.384L206.649,241.839L206.394,242.294L206.141,242.75L205.889,243.206L205.639,243.663L205.39,244.121L205.143,244.579L204.897,245.038L204.653,245.498L204.41,245.958L204.169,246.419L203.93,246.88L203.691,247.342L203.455,247.804L203.22,248.267L202.986,248.73L202.754,249.195L202.523,249.659L202.294,250.124L202.067,250.59L201.84,251.057L201.616,251.523L201.393,251.991L201.171,252.46L200.951,252.928L200.733,253.396L200.516,253.866L200.3,254.337L200.086,254.808L199.874,255.279L199.663,255.75L199.453,256.223L199.245,256.696L199.039,257.169L198.833,257.644L198.63,258.118L198.428,258.593L198.227,259.068L198.028,259.545L197.831,260.021L197.635,260.498L197.441,260.975L197.247,261.454L197.056,261.932L196.866,262.411L196.677,262.891L196.49,263.371L196.305,263.851L196.121,264.332L195.938,264.814L195.757,265.296L195.578,265.778L195.4,266.26L195.223,266.744L195.048,267.228L194.875,267.712L194.703,268.197L194.532,268.682L194.364,269.168L194.196,269.654L194.03,270.141L193.866,270.628L193.703,271.115L193.541,271.602L193.381,272.091L193.223,272.579L193.066,273.069L192.91,273.558L192.756,274.048L192.604,274.538L192.453,275.029L192.304,275.52L192.156,276.012L192.009,276.504L191.864,276.996L191.721,277.489L191.579,277.982L191.439,278.476L191.3,278.969L191.162,279.464L191.026,279.959L190.892,280.453L190.759,280.949L190.628,281.444L190.498,281.941L190.37,282.438L190.243,282.934L190.117,283.431L189.994,283.928L189.871,284.426L189.751,284.925L189.631,285.423L189.514,285.922L189.397,286.421L189.282,286.921L189.169,287.421L189.058,287.92L188.947,288.421L188.839,288.922L188.731,289.423L188.626,289.925L188.521,290.426L188.419,290.928L188.318,291.43L188.218,291.933L188.12,292.435L188.023,292.938L187.928,293.442L187.835,293.945L187.743,294.449L187.652,294.953L187.563,295.457L187.475,295.962L187.389,296.467L187.305,296.972L187.222,297.477L187.14,297.983L187.061,298.489L186.982,298.995L186.905,299.501L186.83,300.007L186.756,300.514L186.684,301.021L186.613,301.528L186.543,302.036L186.476,302.543L186.409,303.051L186.345,303.558L186.282,304.066L186.22,304.575L186.16,305.083L186.101,305.592L186.044,306.1L185.988,306.609L185.934,307.118L185.881,307.627L185.83,308.137L185.781,308.646L185.733,309.156L185.686,309.665L185.641,310.176L185.598,310.685L185.556,311.196L185.516,311.706L185.477,312.216L185.439,312.727L185.404,313.237L185.369,313.748L185.336,314.259L185.305,314.77L185.275,315.281L185.247,315.791L185.221,316.303L185.195,316.814L185.172,317.326L185.15,317.837L185.129,318.348L185.11,318.859L185.092,319.371L185.076,319.883L185.062,320.395L185.049,320.906L185.037,321.417L185.028,321.929L185.019,322.441L185.012,322.953L185.007,323.465L185.003,323.976L185.001,324.488L185,325L185.001,325.511L185.003,326.024L185.007,326.535L185.012,327.047L185.019,327.559L185.028,328.071L185.037,328.583L185.049,329.094L185.062,329.605L185.076,330.117L185.092,330.629L185.11,331.141L185.129,331.652L185.15,332.163L185.172,332.674L185.195,333.186L185.221,333.697L185.247,334.209L185.275,334.719L185.305,335.23L185.336,335.741L185.369,336.252L185.404,336.763L185.439,337.273L185.477,337.784L185.516,338.294L185.556,338.804L185.598,339.315L185.641,339.824L185.686,340.334L185.733,340.844L185.781,341.354L185.83,341.863L185.881,342.373L185.934,342.882L185.988,343.391L186.044,343.9L186.101,344.409L186.16,344.917L186.22,345.425L186.282,345.934L186.345,346.442L186.409,346.949L186.476,347.457L186.543,347.964L186.613,348.472L186.684,348.979L186.756,349.486L186.83,349.992L186.905,350.499L186.982,351.005L187.061,351.511L187.14,352.017L187.222,352.523L187.305,353.028L187.389,353.533L187.476,354.038L187.563,354.543L187.652,355.047L187.743,355.551L187.835,356.055L187.928,356.558L188.023,357.062L188.12,357.565L188.218,358.067L188.318,358.57L188.419,359.072L188.521,359.574L188.626,360.075L188.731,360.577L188.839,361.078L188.947,361.579L189.058,362.08L189.169,362.579L189.282,363.079L189.397,363.579L189.513,364.078L189.631,364.577L189.751,365.075L189.871,365.574L189.994,366.071L190.117,366.569L190.243,367.066L190.37,367.563L190.498,368.059L190.628,368.556L190.759,369.051L190.892,369.546L191.026,370.041L191.162,370.536L191.3,371.031L191.439,371.524L191.579,372.018L191.721,372.511L191.864,373.003L192.009,373.496L192.156,373.989L192.304,374.48L192.453,374.97L192.604,375.461L192.757,375.952L192.91,376.442L193.066,376.931L193.223,377.421L193.381,377.909L193.541,378.398L193.703,378.885L193.866,379.373L194.03,379.859L194.196,380.346L194.364,380.832L194.532,381.317L194.703,381.803L194.875,382.288L195.048,382.772L195.223,383.255L195.4,383.74L195.578,384.222L195.757,384.704L195.938,385.186L196.121,385.668L196.305,386.149L196.49,386.629L196.677,387.109L196.866,387.589L197.056,388.068L197.247,388.546L197.44,389.024L197.635,389.502L197.831,389.979L198.028,390.455L198.228,390.932L198.428,391.407L198.63,391.882L198.833,392.356L199.039,392.831L199.245,393.304L199.453,393.776L199.663,394.25L199.874,394.722L200.086,395.192L200.3,395.663L200.516,396.133L200.733,396.603L200.951,397.072L201.171,397.54L201.393,398.008L201.616,398.476L201.841,398.944L202.067,399.41L202.294,399.875L202.523,400.341L202.754,400.806L202.986,401.269L203.219,401.733L203.455,402.196L203.691,402.658L203.929,403.12L204.169,403.582L204.41,404.042L204.653,404.502L204.897,404.962L205.143,405.421L205.39,405.879L205.639,406.337L205.889,406.794L206.141,407.25L206.394,407.706L206.649,408.161L206.905,408.616L207.163,409.07L207.423,409.524L207.683,409.976L207.946,410.428L208.21,410.88L208.475,411.331L208.742,411.781L209.011,412.231L209.28,412.68L209.552,413.128L209.825,413.576L210.1,414.023L210.376,414.47L210.654,414.917L210.933,415.362L211.213,415.805L211.496,416.249L211.78,416.693L212.065,417.136L212.352,417.577L212.64,418.019L212.931,418.461L213.222,418.9L213.515,419.339L213.81,419.778L214.106,420.216L214.404,420.653L214.703,421.09L215.004,421.526L215.306,421.961L215.61,422.396L215.916,422.83L216.223,423.264L216.532,423.697L216.842,424.128L217.153,424.559L217.466,424.99L217.781,425.42L218.098,425.85L218.416,426.278L218.736,426.706L219.056,427.132L219.379,427.559L219.704,427.985L220.031,428.411L220.359,428.836L220.687,429.258L221.017,429.681L221.35,430.103L221.684,430.525L222.019,430.945L222.357,431.366L222.695,431.785L223.035,432.203L223.378,432.622L223.722,433.039L224.066,433.455L224.413,433.871L224.761,434.286L225.112,434.701L225.464,435.115L225.816,435.526L226.172,435.939L226.529,436.351L226.886,436.761L227.246,437.171L227.607,437.579L227.97,437.987L228.335,438.396L228.702,438.803L229.07,439.209L229.44,439.614L229.81,440.018L230.185,440.423L230.56,440.826L230.935,441.227L231.313,441.629L231.693,442.03L232.074,442.429L232.457,442.829L232.843,443.228L233.23,443.627L233.617,444.022L234.006,444.417L234.398,444.813L234.792,445.208L235.186,445.601L235.583,445.994L235.978,446.383L236.374,446.77L236.772,447.157L237.17,447.541L237.57,447.926L237.971,448.308L238.372,448.687L238.772,449.064L239.175,449.441L239.577,449.815L239.981,450.188L240.386,450.56L240.792,450.931L241.198,451.298L241.604,451.664L242.012,452.029L242.42,452.392L242.83,452.755L243.241,453.115L243.648,453.47L244.061,453.828L244.475,454.184L244.886,454.537L245.301,454.889L245.714,455.239L246.128,455.586L246.545,455.934L246.961,456.278L247.376,456.621L247.796,456.964L248.216,457.306L248.636,457.645L249.055,457.981L249.475,458.316L249.895,458.649L250.319,458.982L250.743,459.314L251.163,459.641L251.589,459.969L252.015,460.296L252.44,460.62L252.868,460.944L253.294,461.264L253.72,461.583L254.151,461.902L254.581,462.219L255.01,462.533L255.439,462.846L255.872,463.159L256.305,463.47L256.737,463.778L257.169,464.084L257.605,464.391L258.038,464.693L258.472,464.995L258.91,465.297L259.348,465.597L259.784,465.894L260.221,466.189L260.661,466.485L261.099,466.777L261.541,467.07L261.983,467.361L262.421,467.647L262.864,467.935L263.308,468.221L263.75,468.504L264.193,468.786L264.639,469.067L265.085,469.347L265.53,469.624L265.976,469.9L266.422,470.174L266.871,470.448L267.321,470.72L267.769,470.989L268.22,471.259L268.669,471.525L269.119,471.79L269.572,472.054L270.023,472.316L270.477,472.578L270.932,472.838L271.385,473.095L271.838,473.351L272.295,473.607L272.749,473.859L273.205,474.11L273.664,474.361L274.123,474.611L274.58,474.857L275.037,475.102L275.498,475.347L275.957,475.589L276.419,475.831L276.882,476.072L277.34,476.308L277.804,476.545L278.268,476.781L278.73,477.014L279.193,477.245L279.66,477.477L280.127,477.707L280.588,477.932L281.056,478.159L281.524,478.384L281.99,478.607L282.46,478.829L282.928,479.049L283.395,479.266L283.867,479.484L284.338,479.701L284.808,479.914L285.278,480.126L285.751,480.338L286.226,480.548L286.697,480.755L287.169,480.961L287.645,481.167L288.118,481.37L288.591,481.571L289.068,481.772L289.546,481.972L290.021,482.169L290.497,482.365L290.976,482.56L291.453,482.752L291.933,482.944L292.411,483.134L292.889,483.322L293.374,483.511L293.853,483.696L294.333,483.879L294.812,484.061L295.296,484.243L295.78,484.423L296.258,484.599L296.743,484.776L297.229,484.952L297.712,485.125L298.198,485.297L298.682,485.467L299.166,485.636L299.654,485.804L300.142,485.971L300.627,486.134L301.113,486.297L301.603,486.459L302.094,486.62L302.581,486.778L303.068,486.934L303.556,487.089L304.048,487.244L304.54,487.396L305.029,487.547L305.519,487.696L306.012,487.844L306.506,487.991L306.997,488.136L307.488,488.279L307.979,488.42L308.475,488.561L308.971,488.701L309.464,488.838L309.96,488.974L310.453,489.108L310.947,489.24L311.445,489.372L311.939,489.502L312.438,489.63L312.937,489.758L313.432,489.883L313.928,490.006L314.428,490.129L314.925,490.249L315.421,490.368L315.922,490.486L316.423,490.603L316.921,490.718L317.419,490.83L317.921,490.943L318.42,491.053L318.923,491.162L319.422,491.269L319.921,491.374L320.429,491.479L320.93,491.582L321.43,491.682L321.931,491.782L322.432,491.879L322.941,491.977L323.442,492.072L323.944,492.165L324.45,492.258L324.953,492.348L325.459,492.437L325.962,492.525L326.465,492.61L326.972,492.695L327.48,492.778L327.983,492.86L328.487,492.939L328.995,493.018L329.5,493.095L330.009,493.17L330.517,493.244L331.018,493.316L331.528,493.387L332.037,493.457L332.543,493.524L333.049,493.59L333.559,493.655L334.069,493.719L334.571,493.78L335.082,493.84L335.592,493.899L336.099,493.956L336.611,494.012L337.118,494.066L337.625,494.118L338.137,494.17L338.648,494.219L339.156,494.267L339.664,494.314L340.176,494.359L340.684,494.402L341.197,494.444L341.709,494.485L342.214,494.523L342.726,494.561L343.239,494.597L343.748,494.631L344.257,494.663L344.77,494.695L345.283,494.725L345.789,494.753L346.302,494.779L346.815,494.805L347.325,494.828L347.838,494.85L348.348,494.871L348.857,494.89L349.371,494.908L349.885,494.924L350.395,494.938L350.904,494.951L351.418,494.963L351.928,494.972L352.442,494.981L352.956,494.988L353.462,494.993L353.976,494.997L354.49,494.999L355,495L355.51,494.999L356.024,494.997L356.538,494.993L357.044,494.988L357.558,494.981L358.072,494.972L358.582,494.963L359.096,494.951L359.605,494.938L360.115,494.924L360.629,494.908L361.143,494.89L361.652,494.871L362.162,494.85L362.675,494.828L363.185,494.805L363.698,494.779L364.211,494.753L364.717,494.725L365.23,494.695L365.743,494.663L366.252,494.631L366.761,494.597L367.274,494.561L367.786,494.523L368.291,494.485L368.803,494.444L369.316,494.402L369.824,494.359L370.336,494.314L370.844,494.267L371.352,494.219L371.863,494.17L372.375,494.118L372.882,494.066L373.389,494.012L373.901,493.956L374.408,493.899L374.918,493.84L375.429,493.78L375.931,493.719L376.441,493.655L376.951,493.59L377.457,493.524L377.963,493.457L378.472,493.387L378.982,493.316L379.483,493.244L379.991,493.17L380.5,493.095L381.005,493.018L381.513,492.939L382.017,492.86L382.52,492.778L383.028,492.695L383.535,492.61L384.038,492.525L384.541,492.437L385.047,492.348L385.55,492.258L386.056,492.165L386.558,492.072L387.059,491.977L387.568,491.879L388.069,491.782L388.57,491.682L389.07,491.582L389.571,491.479L390.079,491.374L390.578,491.269L391.077,491.162L391.58,491.053L392.079,490.943L392.581,490.83L393.079,490.718L393.577,490.603L394.078,490.486L394.579,490.368L395.075,490.249L395.572,490.129L396.072,490.006L396.568,489.883L397.063,489.758L397.562,489.63L398.061,489.502L398.555,489.372L399.053,489.24L399.547,489.108L400.04,488.974L400.536,488.838L401.029,488.701L401.525,488.561L402.021,488.42L402.512,488.279L403.003,488.136L403.494,487.991L403.988,487.844L404.481,487.696L404.971,487.547L405.46,487.396L405.952,487.244L406.444,487.089L406.932,486.934L407.419,486.778L407.906,486.62L408.397,486.459L408.887,486.297L409.373,486.134L409.858,485.971L410.346,485.804L410.834,485.636L411.318,485.467L411.802,485.297L412.288,485.125L412.771,484.952L413.257,484.776L413.742,484.599L414.22,484.423L414.704,484.243L415.188,484.061L415.667,483.879L416.147,483.696L416.626,483.511L417.111,483.322L417.59,483.134L418.067,482.944L418.547,482.752L419.024,482.56L419.503,482.365L419.979,482.169L420.454,481.972L420.931,481.773L421.409,481.571L421.883,481.37L422.355,481.167L422.831,480.961L423.303,480.756L423.775,480.548L424.249,480.338L424.722,480.126L425.192,479.914L425.662,479.701L426.133,479.484L426.605,479.266L427.073,479.048L427.54,478.829L428.01,478.607L428.475,478.385L428.944,478.159L429.413,477.932L429.874,477.707L430.34,477.477L430.806,477.246L431.27,477.014L431.732,476.781L432.196,476.545L432.661,476.307L433.117,476.072L433.58,475.831L434.044,475.589L434.502,475.347L434.963,475.102L435.42,474.857L435.877,474.611L436.336,474.361L436.795,474.11L437.251,473.859L437.705,473.607L438.161,473.351L438.615,473.095L439.068,472.838L439.523,472.578L439.977,472.316L440.428,472.054L440.881,471.79L441.331,471.525L441.78,471.259L442.231,470.989L442.679,470.72L443.129,470.447L443.579,470.173L444.025,469.899L444.47,469.624L444.914,469.348L445.361,469.067L445.807,468.785L446.25,468.504L446.692,468.221L447.136,467.935L447.58,467.647L448.018,467.36L448.459,467.07L448.901,466.777L449.339,466.485L449.779,466.19L450.216,465.894L450.652,465.597L451.09,465.297L451.528,464.995L451.962,464.694L452.397,464.39L452.831,464.084L453.262,463.778L453.695,463.469L454.129,463.158L454.56,462.847L454.99,462.534L455.42,462.219L455.85,461.902L456.28,461.583L456.705,461.265L457.132,460.944L457.56,460.62L457.984,460.296L458.411,459.969L458.836,459.641L459.257,459.314L459.682,458.981L460.105,458.648L460.524,458.317L460.944,457.982L461.363,457.645L461.785,457.305L462.204,456.964L462.623,456.621L463.039,456.278L463.455,455.934L463.873,455.585L464.285,455.239L464.698,454.89L465.115,454.536L465.527,454.183L465.939,453.828L466.351,453.471L466.758,453.116L467.171,452.753L467.582,452.391L467.986,452.031L468.396,451.664L468.803,451.297L469.207,450.931L469.614,450.56L470.02,450.187L470.422,449.816L470.824,449.442L471.227,449.065L471.628,448.687L472.029,448.308L472.429,447.926L472.829,447.542L473.228,447.157L473.627,446.769L474.022,446.383L474.417,445.994L474.813,445.602L475.323,445.093L623.585,593.816L622.836,594.563L621.969,595.422L621.097,596.28L620.223,597.135L619.35,597.983L618.474,598.829L617.596,599.672L616.715,600.512L615.831,601.349L614.945,602.183L614.059,603.013L613.168,603.841L612.274,604.667L611.382,605.486L610.487,606.302L609.586,607.119L608.686,607.929L607.786,608.735L606.877,609.543L605.972,610.343L605.066,611.138L604.152,611.935L603.24,612.726L602.325,613.514L601.408,614.299L600.492,615.078L599.57,615.858L598.643,616.635L597.72,617.405L596.793,618.174L595.863,618.94L594.933,619.701L594.001,620.458L593.068,621.212L592.131,621.964L591.191,622.713L590.248,623.461L589.306,624.202L588.364,624.939L587.415,625.676L586.468,626.407L585.519,627.134L584.566,627.861L583.615,628.581L582.659,629.3L581.699,630.017L580.741,630.728L579.781,631.436L578.818,632.141L577.853,632.843L576.887,633.542L575.92,634.236L574.95,634.928L573.977,635.617L573.004,636.302L572.029,636.984L571.051,637.663L570.074,638.337L569.096,639.008L568.113,639.677L567.128,640.343L566.145,641.003L565.157,641.662L564.17,642.316L563.18,642.967L562.185,643.618L561.194,644.261L560.201,644.901L559.202,645.54L558.203,646.176L557.205,646.806L556.206,647.433L555.202,648.058L554.196,648.68L553.189,649.298L552.183,649.911L551.176,650.521L550.164,651.13L549.154,651.733L548.14,652.334L547.123,652.932L546.109,653.525L545.09,654.117L544.072,654.703L543.053,655.286L542.03,655.867L541.005,656.444L539.982,657.017L538.954,657.588L537.925,658.156L536.898,658.718L535.869,659.277L534.836,659.835L533.802,660.388L532.768,660.938L531.731,661.485L530.697,662.026L529.66,662.565L528.615,663.104L527.576,663.635L526.535,664.164L525.49,664.691L524.445,665.214L523.4,665.732L522.354,666.247L521.301,666.762L520.254,667.269L519.204,667.774L518.15,668.277L517.098,668.775L516.042,669.271L514.985,669.763L513.93,670.251L512.873,670.735L511.813,671.217L510.751,671.696L509.691,672.17L508.63,672.641L507.565,673.109L506.499,673.575L505.434,674.035L504.365,674.493L503.296,674.948L502.229,675.398L501.16,675.845L500.087,676.29L499.013,676.731L497.942,677.167L496.866,677.602L495.792,678.031L494.714,678.459L493.635,678.883L492.562,679.301L491.481,679.719L490.399,680.132L489.316,680.543L488.235,680.949L487.154,681.351L486.064,681.753L484.981,682.148L483.897,682.54L482.808,682.93L481.722,683.316L480.632,683.699L479.541,684.078L478.452,684.454L477.362,684.825L476.268,685.195L475.174,685.561L474.082,685.922L472.989,686.28L471.892,686.636L470.793,686.989L469.694,687.338L468.599,687.682L467.501,688.023L466.4,688.362L465.298,688.697L464.198,689.028L463.099,689.355L461.995,689.68L460.889,690.002L459.783,690.32L458.68,690.634L457.577,690.944L456.469,691.252L455.364,691.556L454.254,691.857L453.144,692.155L452.037,692.448L450.925,692.739L449.817,693.025L448.708,693.309L447.594,693.589L446.481,693.867L445.37,694.139L444.255,694.41L443.138,694.677L442.026,694.94L440.913,695.199L439.795,695.456L438.676,695.709L437.561,695.958L436.442,696.205L435.326,696.447L434.205,696.687L433.084,696.923L431.97,697.155L430.848,697.384L429.725,697.61L428.602,697.833L427.479,698.052L426.362,698.267L425.237,698.479L424.112,698.688L422.99,698.893L421.865,699.096L420.742,699.294L419.615,699.489L418.488,699.681L417.363,699.869L416.239,700.054L415.111,700.236L413.981,700.414L412.856,700.589L411.726,700.76L410.6,700.928L409.473,701.092L408.338,701.254L407.211,701.412L406.083,701.566L404.951,701.717L403.819,701.865L402.69,702.009L401.561,702.149L400.424,702.287L399.294,702.421L398.164,702.551L397.03,702.679L395.9,702.802L394.765,702.923L393.63,703.04L392.499,703.154L391.367,703.264L390.231,703.371L389.095,703.474L387.963,703.574L386.827,703.671L385.694,703.764L384.561,703.854L383.42,703.941L382.287,704.023L381.153,704.103L380.016,704.18L378.878,704.253L377.744,704.322L376.61,704.388L375.468,704.451L374.334,704.51L373.199,704.566L372.06,704.619L370.926,704.668L369.787,704.714L368.648,704.756L367.513,704.795L366.378,704.83L365.239,704.863L364.099,704.892L362.964,704.917L361.825,704.939L360.689,704.958L359.554,704.973L358.411,704.985L357.275,704.993L356.139,704.998L355,705L353.861,704.998L352.725,704.993L351.589,704.985L350.446,704.973L349.311,704.958L348.175,704.939L347.036,704.917L345.901,704.892L344.761,704.863L343.622,704.83L342.487,704.795L341.352,704.756L340.213,704.714L339.074,704.668L337.94,704.619L336.801,704.566L335.666,704.51L334.532,704.451L333.39,704.388L332.256,704.322L331.122,704.253L329.984,704.18L328.847,704.103L327.713,704.023L326.58,703.941L325.439,703.854L324.306,703.764L323.173,703.671L322.037,703.574L320.905,703.474L319.769,703.371L318.633,703.264L317.501,703.154L316.37,703.04L315.235,702.923L314.1,702.802L312.97,702.679L311.836,702.551L310.706,702.421L309.576,702.287L308.439,702.149L307.31,702.009L306.181,701.865L305.049,701.717L303.917,701.566L302.789,701.412L301.662,701.254L300.527,701.092L299.4,700.928L298.274,700.76L297.144,700.589L296.019,700.414L294.889,700.236L293.761,700.054L292.637,699.869L291.512,699.681L290.385,699.489L289.258,699.294L288.135,699.096L287.01,698.893L285.888,698.688L284.763,698.479L283.638,698.267L282.521,698.052L281.398,697.833L280.275,697.61L279.152,697.384L278.03,697.155L276.916,696.923L275.795,696.687L274.674,696.447L273.558,696.205L272.439,695.958L271.324,695.709L270.205,695.456L269.087,695.199L267.974,694.94L266.862,694.677L265.745,694.41L264.63,694.139L263.519,693.867L262.406,693.589L261.292,693.309L260.183,693.025L259.075,692.739L257.963,692.448L256.856,692.155L255.746,691.857L254.636,691.556L253.531,691.252L252.423,690.944L251.32,690.634L250.217,690.32L249.111,690.002L248.005,689.68L246.901,689.355L245.802,689.028L244.702,688.697L243.6,688.362L242.499,688.023L241.401,687.682L240.306,687.338L239.207,686.989L238.108,686.636L237.011,686.28L235.918,685.922L234.826,685.561L233.732,685.195L232.638,684.825L231.548,684.454L230.459,684.078L229.368,683.699L228.278,683.316L227.192,682.93L226.103,682.54L225.019,682.148L223.936,681.753L222.846,681.351L221.765,680.949L220.684,680.543L219.601,680.132L218.519,679.718L217.439,679.301L216.365,678.883L215.286,678.459L214.208,678.031L213.134,677.602L212.058,677.167L210.987,676.731L209.913,676.29L208.84,675.845L207.772,675.398L206.704,674.948L205.634,674.493L204.566,674.035L203.501,673.575L202.435,673.109L201.37,672.641L200.309,672.17L199.249,671.696L198.187,671.217L197.127,670.735L196.07,670.251L195.015,669.763L193.958,669.271L192.901,668.775L191.85,668.277L190.796,667.774L189.747,667.27L188.699,666.762L187.645,666.247L186.6,665.732L185.556,665.214L184.51,664.691L183.465,664.164L182.424,663.636L181.385,663.104L180.341,662.565L179.304,662.027L178.268,661.484L177.231,660.937L176.199,660.389L175.164,659.835L174.131,659.277L173.102,658.718L172.075,658.156L171.046,657.588L170.018,657.017L168.995,656.445L167.971,655.867L166.947,655.286L165.928,654.703L164.91,654.117L163.891,653.525L162.877,652.932L161.861,652.334L160.846,651.733L159.836,651.13L158.824,650.522L157.816,649.911L156.811,649.298L155.804,648.68L154.799,648.058L153.795,647.433L152.795,646.806L151.796,646.175L150.797,645.54L149.8,644.901L148.807,644.261L147.814,643.617L146.819,642.967L145.831,642.316L144.843,641.662L143.856,641.003L142.872,640.343L141.887,639.677L140.904,639.008L139.925,638.337L138.949,637.663L137.971,636.984L136.994,636.301L136.023,635.617L135.05,634.928L134.08,634.236L133.113,633.541L132.148,632.844L131.182,632.141L130.218,631.435L129.259,630.728L128.301,630.017L127.343,629.301L126.386,628.581L125.433,627.86L124.481,627.135L123.532,626.407L122.585,625.676L121.636,624.938L120.693,624.201L119.751,623.46L118.81,622.714L117.87,621.965L116.932,621.212L115.998,620.458L115.067,619.701L114.138,618.94L113.207,618.174L112.279,617.405L111.356,616.634L110.431,615.858L109.51,615.079L108.592,614.299L107.674,613.513L106.76,612.726L105.849,611.936L104.934,611.139L104.026,610.341L103.121,609.542L102.216,608.737L101.314,607.929L100.413,607.118L99.514,606.303L98.618,605.486L97.725,604.666L96.833,603.842L95.942,603.014L95.055,602.184L94.169,601.349L93.285,600.511L92.405,599.672L91.527,598.83L90.649,597.982L89.776,597.133L88.902,596.279L88.032,595.422L87.165,594.564L86.299,593.701L85.437,592.836L84.578,591.968L83.72,591.097L82.866,590.224L82.017,589.35L81.171,588.474L80.328,587.596L79.487,586.714L78.65,585.831L77.817,584.946L76.985,584.057L76.158,583.167L75.335,582.276L74.514,581.382L73.696,580.485L72.882,579.587L72.071,578.687L71.264,577.785L70.46,576.88L69.658,575.973L68.86,575.064L68.065,574.152L67.274,573.24L66.487,572.326L65.701,571.408L64.919,570.489L64.142,569.569L63.367,568.645L62.595,567.72L61.826,566.793L61.061,565.864L60.3,564.934L59.541,564.001L58.786,563.065L58.035,562.129L57.286,561.19L56.541,560.25L55.799,559.308L55.061,558.363L54.325,557.416L53.593,556.468L52.865,555.519L52.14,554.568L51.419,553.614L50.699,552.658L49.984,551.7L49.272,550.741L48.564,549.781L47.859,548.818L47.157,547.853L46.458,546.887L45.763,545.918L45.071,544.949L44.383,543.978L43.698,543.004L43.016,542.03L42.338,541.053L41.663,540.074L40.991,539.094L40.323,538.112L39.658,537.129L38.997,536.144L38.338,535.157L37.683,534.168L37.032,533.179L36.384,532.188L35.739,531.194L35.098,530.199L34.46,529.203L33.826,528.205L33.194,527.205L32.566,526.203L31.942,525.201L31.321,524.197L30.703,523.191L30.089,522.184L29.478,521.175L28.871,520.165L28.266,519.153L27.666,518.14L27.068,517.125L26.475,516.109L25.884,515.091L25.297,514.071L24.713,513.051L24.133,512.029L23.556,511.006L22.982,509.981L22.412,508.954L21.845,507.927L21.282,506.897L20.722,505.867L20.165,504.835L19.612,503.802L19.063,502.769L18.516,501.733L17.973,500.695L17.434,499.658L16.897,498.617L16.364,497.576L15.835,496.534L15.31,495.491L14.787,494.445L14.268,493.399L13.752,492.353L13.24,491.304L12.731,490.254L12.225,489.203L11.724,488.151L11.225,487.098L10.729,486.042L10.238,484.987L9.749,483.93L9.264,482.872L8.783,481.813L8.304,480.752L7.829,479.69L7.359,478.629L6.89,477.564L6.426,476.499L5.965,475.434L5.507,474.366L5.053,473.298L4.602,472.228L4.154,471.158L3.71,470.087L3.27,469.014L2.833,467.941L2.399,466.867L1.968,465.791L1.541,464.715L1.118,463.637L0.698,462.559L0.281,461.479L-0.133,460.398L-0.542,459.318L-0.949,458.235L-1.352,457.151L-1.752,456.067L-2.148,454.983L-2.541,453.896L-2.93,452.808L-3.316,451.721L-3.699,450.633L-4.078,449.542L-4.454,448.452L-4.826,447.361L-5.195,446.268L-5.56,445.175L-5.923,444.081L-6.281,442.986L-6.637,441.89L-6.988,440.794L-7.337,439.697L-7.682,438.598L-8.023,437.5L-8.362,436.4L-8.697,435.299L-9.028,434.198L-9.356,433.096L-9.68,431.994L-10.002,430.89L-10.319,429.786L-10.634,428.681L-10.945,427.575L-11.252,426.469L-11.556,425.362L-11.857,424.255L-12.154,423.146L-12.448,422.036L-12.739,420.927L-13.026,419.816L-13.309,418.705L-13.59,417.594L-13.866,416.481L-14.14,415.368L-14.41,414.255L-14.676,413.14L-14.94,412.026L-15.2,410.91L-15.456,409.794L-15.709,408.678L-15.959,407.56L-16.205,406.443L-16.447,405.325L-16.687,404.206L-16.923,403.087L-17.155,401.967L-17.385,400.846L-17.61,399.725L-17.833,398.604L-18.052,397.482L-18.267,396.36L-18.479,395.237L-18.688,394.113L-18.894,392.99L-19.095,391.866L-19.294,390.74L-19.489,389.615L-19.681,388.489L-19.869,387.364L-20.054,386.237L-20.236,385.111L-20.414,383.983L-20.589,382.855L-20.76,381.727L-20.928,380.599L-21.093,379.47L-21.254,378.341L-21.412,377.212L-21.566,376.082L-21.717,374.951L-21.864,373.821L-22.009,372.69L-22.15,371.558L-22.287,370.428L-22.421,369.296L-22.551,368.163L-22.679,367.031L-22.802,365.898L-22.923,364.765L-23.04,363.632L-23.154,362.499L-23.264,361.365L-23.371,360.231L-23.474,359.097L-23.574,357.963L-23.671,356.828L-23.764,355.693L-23.854,354.558L-23.94,353.423L-24.024,352.287L-24.103,351.151L-24.18,350.016L-24.252,348.88L-24.322,347.744L-24.388,346.608L-24.451,345.471L-24.51,344.334L-24.566,343.198L-24.619,342.061L-24.668,340.924L-24.714,339.787L-24.756,338.65L-24.795,337.513L-24.831,336.376L-24.863,335.239L-24.892,334.101L-24.917,332.963L-24.939,331.826L-24.958,330.688L-24.973,329.551L-24.985,328.413L-24.993,327.275L-24.998,326.138L-25,325L-24.998,323.862L-24.993,322.725L-24.985,321.587L-24.973,320.449L-24.958,319.312L-24.939,318.174L-24.917,317.037L-24.892,315.899L-24.863,314.761L-24.831,313.624L-24.795,312.487L-24.756,311.35L-24.714,310.213L-24.668,309.076L-24.619,307.939L-24.566,306.802L-24.51,305.666L-24.451,304.529L-24.388,303.393L-24.322,302.256L-24.252,301.12L-24.18,299.984L-24.103,298.849L-24.023,297.713L-23.94,296.577L-23.854,295.442L-23.764,294.307L-23.671,293.172L-23.574,292.038L-23.474,290.903L-23.371,289.769L-23.264,288.635L-23.154,287.501L-23.04,286.368L-22.923,285.235L-22.803,284.102L-22.679,282.969L-22.551,281.836L-22.421,280.704L-22.287,279.573L-22.15,278.442L-22.009,277.31L-21.864,276.179L-21.717,275.049L-21.566,273.918L-21.412,272.788L-21.254,271.659L-21.093,270.53L-20.928,269.401L-20.76,268.273L-20.589,267.145L-20.414,266.017L-20.236,264.889L-20.054,263.763L-19.869,262.637L-19.681,261.51L-19.489,260.385L-19.294,259.26L-19.095,258.135L-18.894,257.01L-18.688,255.887L-18.479,254.763L-18.267,253.64L-18.052,252.518L-17.833,251.396L-17.61,250.275L-17.385,249.154L-17.155,248.033L-16.923,246.913L-16.687,245.794L-16.447,244.675L-16.205,243.558L-15.959,242.44L-15.709,241.322L-15.456,240.205L-15.2,239.09L-14.94,237.974L-14.676,236.86L-14.41,235.745L-14.14,234.632L-13.866,233.519L-13.59,232.406L-13.309,231.295L-13.026,230.183L-12.739,229.073L-12.448,227.963L-12.154,226.854L-11.857,225.746L-11.556,224.638L-11.252,223.531L-10.945,222.425L-10.634,221.319L-10.319,220.214L-10.002,219.11L-9.68,218.006L-9.356,216.904L-9.028,215.802L-8.696,214.7L-8.362,213.6L-8.023,212.5L-7.682,211.401L-7.337,210.303L-6.988,209.206L-6.636,208.11L-6.281,207.014L-5.923,205.919L-5.56,204.825L-5.195,203.731L-4.826,202.639L-4.454,201.548L-4.078,200.458L-3.699,199.368L-3.316,198.279L-2.93,197.191L-2.541,196.104L-2.148,195.018L-1.752,193.933L-1.352,192.849L-0.949,191.765L-0.542,190.682L-0.132,189.601L0.281,188.521L0.698,187.441L1.118,186.363L1.541,185.286L1.968,184.209L2.399,183.133L2.832,182.059L3.27,180.986L3.71,179.913L4.155,178.841L4.602,177.771L5.053,176.702L5.507,175.634L5.965,174.566L6.426,173.501L6.89,172.436L7.358,171.372L7.829,170.31L8.304,169.248L8.783,168.187L9.264,167.128L9.749,166.07L10.237,165.014L10.729,163.957L11.225,162.902L11.723,161.849L12.225,160.797L12.731,159.746L13.24,158.696L13.752,157.648L14.268,156.6L14.787,155.554L15.309,154.51L15.835,153.466L16.365,152.423L16.897,151.383L17.433,150.343L17.973,149.304L18.516,148.267L19.062,147.232L19.612,146.197L20.165,145.165L20.722,144.132L21.282,143.102L21.845,142.073L22.412,141.046L22.982,140.019L23.556,138.994L24.133,137.971L24.713,136.949L25.297,135.928L25.884,134.909L26.474,133.892L27.069,132.875L27.666,131.86L28.266,130.847L28.871,129.835L29.478,128.825L30.089,127.816L30.703,126.809L31.321,125.803L31.942,124.799L32.566,123.796L33.194,122.795L33.825,121.795L34.46,120.797L35.098,119.801L35.739,118.806L36.384,117.813L37.032,116.821L37.683,115.831L38.338,114.843L38.997,113.856L39.658,112.871L40.323,111.888L40.991,110.906L41.663,109.926L42.338,108.947L43.016,107.97L43.698,106.996L44.383,106.023L45.071,105.051L45.763,104.081L46.458,103.113L47.157,102.147L47.859,101.182L48.564,100.22L49.272,99.259L49.984,98.3L50.7,97.342L51.418,96.387L52.14,95.433L52.865,94.481L53.593,93.532L54.325,92.583L55.061,91.637L55.799,90.693L56.541,89.75L57.286,88.81L58.035,87.871L58.787,86.934L59.541,86L60.299,85.067L61.062,84.135L61.827,83.206L62.595,82.28L63.366,81.355L64.141,80.432L64.92,79.511L65.701,78.592L66.486,77.675L67.274,76.76L68.065,75.847L68.86,74.936L69.658,74.027L70.459,73.12L71.264,72.216L72.071,71.314L72.882,70.413L73.697,69.514L74.514,68.618L75.335,67.724L76.158,66.833L76.986,65.943L77.817,65.055L78.65,64.17L79.488,63.286L80.328,62.405L81.171,61.526L82.018,60.649L82.867,59.775L83.72,58.903L84.577,58.032L85.437,57.165L86.299,56.299L87.165,55.436L88.033,54.577L88.902,53.721L89.775,52.868L90.649,52.018L91.526,51.171L92.405,50.327L93.286,49.487L94.169,48.651L95.055,47.816L95.943,46.986L96.832,46.159L97.724,45.335L98.618,44.514L99.515,43.696L100.413,42.882L101.313,42.071L102.216,41.263L103.12,40.459L104.027,39.658L104.936,38.86L105.847,38.065L106.76,37.274L107.674,36.486L108.592,35.701L109.511,34.92L110.432,34.141L111.355,33.366L112.28,32.595L113.207,31.826L114.136,31.061L115.067,30.3L115.999,29.542L116.934,28.786L117.871,28.034L118.809,27.286L119.75,26.541L120.693,25.799L121.637,25.061L122.583,24.325L123.532,23.593L124.482,22.865L125.433,22.14L126.387,21.418L127.342,20.699L128.3,19.984L129.259,19.272L130.219,18.564L131.182,17.859L132.147,17.157L133.113,16.458L134.081,15.763L135.051,15.071L136.022,14.383L136.995,13.698L137.971,13.016L138.947,12.338L139.925,11.663L140.906,10.991L141.888,10.323L142.871,9.658L143.856,8.996L144.843,8.338L145.831,7.683L146.821,7.032L147.812,6.384L148.806,5.739L149.801,5.098L150.797,4.46L151.795,3.825L152.795,3.194L153.796,2.566L154.799,1.942L155.803,1.321L156.809,0.703L157.816,0.089L158.825,-0.522L159.835,-1.13L160.847,-1.733L161.861,-2.334L162.875,-2.932L163.892,-3.526L164.909,-4.116L165.928,-4.703L166.949,-5.287L167.971,-5.868L168.994,-6.444L170.019,-7.018L171.046,-7.588L172.073,-8.155L173.102,-8.718L174.133,-9.278L175.164,-9.835L176.197,-10.388L177.232,-10.938L178.267,-11.484L179.305,-12.027L180.343,-12.566L181.382,-13.102L182.424,-13.635L183.466,-14.165L184.51,-14.691L185.555,-15.213L186.6,-15.732L187.647,-16.248L188.696,-16.76L189.746,-17.269L190.797,-17.775L191.85,-18.277L192.903,-18.775L193.957,-19.271L195.013,-19.762L196.07,-20.251L197.128,-20.736L198.188,-21.218L199.248,-21.696L200.309,-22.17L201.372,-22.642L202.436,-23.11L203.501,-23.574L204.567,-24.035L205.634,-24.493L206.702,-24.947L207.771,-25.398L208.842,-25.846L209.913,-26.29L210.985,-26.73L212.058,-27.167L213.134,-27.602L214.209,-28.032L215.285,-28.459L216.363,-28.882L217.442,-29.303L218.52,-29.719L219.6,-30.132L220.683,-30.543L221.766,-30.949L222.849,-31.352L223.933,-31.752L225.017,-32.148L226.104,-32.541L227.191,-32.93L228.279,-33.316L229.368,-33.699L230.458,-34.078L231.548,-34.454L232.639,-34.826L233.732,-35.195L234.825,-35.56L235.919,-35.922L237.014,-36.281L238.109,-36.636L239.206,-36.988L240.303,-37.337L241.401,-37.682L242.5,-38.023L243.6,-38.362L244.7,-38.696L245.802,-39.028L246.904,-39.356L248.006,-39.68L249.11,-40.002L250.214,-40.319L251.319,-40.634L252.425,-40.945L253.531,-41.252L254.638,-41.556L255.746,-41.857L256.854,-42.154L257.963,-42.448L259.073,-42.739L260.183,-43.026L261.295,-43.309L262.407,-43.59L263.519,-43.866L264.631,-44.14L265.745,-44.41L266.86,-44.677L267.974,-44.94L269.089,-45.199L270.206,-45.456L271.323,-45.709L272.44,-45.959L273.557,-46.205L274.675,-46.447L275.794,-46.687L276.914,-46.923L278.034,-47.155L279.154,-47.385L280.275,-47.61L281.396,-47.833L282.518,-48.052L283.641,-48.267L284.763,-48.479L285.887,-48.688L287.01,-48.894L288.135,-49.095L289.259,-49.294L290.385,-49.489L291.51,-49.681L292.637,-49.869L293.763,-50.054L294.889,-50.236L296.017,-50.414L297.145,-50.589L298.273,-50.76L299.401,-50.928L300.53,-51.093L301.659,-51.254L302.788,-51.412L303.918,-51.566L305.049,-51.717L306.179,-51.864L307.31,-52.009L308.441,-52.149L309.573,-52.287L310.705,-52.421L311.837,-52.551L312.969,-52.679L314.102,-52.802L315.235,-52.923L316.368,-53.04L317.501,-53.154L318.635,-53.264L319.769,-53.371L320.903,-53.474L322.037,-53.574L323.172,-53.671L324.307,-53.764L325.442,-53.854L326.577,-53.94L327.713,-54.024L328.849,-54.103L329.984,-54.18L331.12,-54.252L332.256,-54.322L333.392,-54.388L334.529,-54.451L335.666,-54.51L336.802,-54.566L337.939,-54.619L339.076,-54.668L340.213,-54.714L341.35,-54.756L342.487,-54.795L343.624,-54.831L344.762,-54.863L345.899,-54.892L347.037,-54.917L348.174,-54.939L349.312,-54.958L350.449,-54.973L351.587,-54.985L352.725,-54.993L353.862,-54.998L355,-55L356.138,-54.998Z" style="fill:rgb(74,74,74);"/>
    </g>
    <clipPath id="_clip2">
        <path d="M355,430C412.99,430 460,382.99 460,325C460,267.01 412.99,220 355,220C297.01,220 250,267.01 250,325C250,382.99 297.01,430 355,430Z"/>
    </clipPath>
    <g clip-path="url(#_clip2)">
        <rect x="245" y="215" width="220" height="220" style="fill:rgb(74,74,74);fill-rule:nonzero;"/>
    </g>
    <clipPath id="_clip3">
        <path d="M565,390C600.899,390 630,360.899 630,325C630,289.102 600.899,260 565,260C529.102,260 500,289.102 500,325C500,360.899 529.102,390 565,390Z"/>
    </clipPath>
    <g clip-path="url(#_clip3)">
        <rect x="495" y="255" width="140" height="140" style="fill:rgb(74,74,74);fill-rule:nonzero;"/>
    </g>
    <g>
        <clipPath id="_clip4">
            <rect x="80" y="50" width="550" height="550"/>
        </clipPath>
        <g clip-path="url(#_clip4)">
            <rect x="75" y="45" width="560" height="560" style="fill:rgb(208,2,27);fill-opacity:0.301961;fill-rule:nonzero;"/>
            <clipPath id="_clip5">
                <rect x="185" y="155" width="340" height="340"/>
            </clipPath>
            <g clip-path="url(#_clip5)">
                <rect x="180" y="150" width="350" height="350" style="fill:rgb(245,166,35);fill-opacity:0.301961;fill-rule:nonzero;"/>
            </g>
            <clipPath id="_clip6">
                <rect x="250" y="220" width="210" height="210"/>
            </clipPath>
            <g clip-path="url(#_clip6)">
                <rect x="245" y="215" width="220" height="220" style="fill:rgb(144,19,254);fill-opacity:0.301961;fill-rule:nonzero;"/>
            </g>
            <clipPath id="_clip7">
                <rect x="500" y="260" width="130" height="130"/>
            </clipPath>
            <g clip-path="url(#_clip7)">
                <rect x="495" y="255" width="140" height="140" style="fill:rgb(74,144,226);fill-opacity:0.301961;fill-rule:nonzero;"/>
            </g>
            <text x="80.156px" y="73px" style="font-family:'HelveticaNeue-Bold', 'Helvetica Neue';font-weight:700;font-size:24px;fill:white;">55</text>
            <text x="185.156px" y="178px" style="font-family:'HelveticaNeue-Bold', 'Helvetica Neue';font-weight:700;font-size:24px;fill:white;">34</text>
            <text x="250.156px" y="243px" style="font-family:'HelveticaNeue-Bold', 'Helvetica Neue';font-weight:700;font-size:24px;fill:white;">21</text>
            <text x="500.156px" y="283px" style="font-family:'HelveticaNeue-Bold', 'Helvetica Neue';font-weight:700;font-size:24px;fill:white;">13</text>
        </g>
    </g>
    <clipPath id="_clip8">
        <rect x="630" y="286" width="80" height="80"/>
    </clipPath>
    <g clip-path="url(#_clip8)">
        <rect x="625" y="281" width="90" height="90" style="fill:rgb(80,227,194);fill-opacity:0.301961;fill-rule:nonzero;"/>
    </g>
    <clipPath id="_clip9">
        <rect x="0" y="286" width="80" height="80"/>
    </clipPath>
    <g clip-path="url(#_clip9)">
        <rect x="-5" y="281" width="90" height="90" style="fill:rgb(80,227,194);fill-opacity:0.301961;fill-rule:nonzero;"/>
    </g>
    <text x="630.828px" y="308px" style="font-family:'HelveticaNeue-Bold', 'Helvetica Neue';font-weight:700;font-size:24px;fill:black;">8</text>
    <g>
        <clipPath id="_clip10">
            <rect x="330" y="600" width="50" height="50"/>
        </clipPath>
        <g clip-path="url(#_clip10)">
            <rect x="325" y="595" width="60" height="60" style="fill:rgb(248,231,28);fill-opacity:0.4;fill-rule:nonzero;"/>
            <text x="330.578px" y="622px" style="font-family:'HelveticaNeue-Bold', 'Helvetica Neue';font-weight:700;font-size:24px;fill:black;">5</text>
        </g>
    </g>
    <clipPath id="_clip11">
        <rect x="330" y="0" width="50" height="50"/>
    </clipPath>
    <g clip-path="url(#_clip11)">
        <rect x="325" y="-5" width="60" height="60" style="fill:rgb(248,231,28);fill-opacity:0.301961;fill-rule:nonzero;"/>
    </g>
</svg>
